<svg xmlns="http://www.w3.org/2000/svg" viewBox="0 0 1000.022725 207.570099" preserveAspectRatio="xMidYMid meet">
  <g fill="currentColor" transform="translate(-19.746400,225.953367) scale(0.100000,-0.100000)">
    <path d="M4063 2252 c-9 -6 -13 -159 -15 -637 -3 -686 -1 -657 -60 -712 -52
-49 -86 -53 -440 -53 l-329 0 -49 25 c-97 49 -93 20 -91 682 1 314 -1 599 -5
632 l-7 61 -279 0 -279 0 3 -717 c4 -709 4 -719 26 -797 41 -142 98 -231 195
-302 152 -113 173 -116 852 -112 547 3 562 4 626 26 186 62 315 208 369 417
20 77 21 104 21 779 0 570 -2 700 -13 707 -16 11 -509 11 -525 1z"/>
<path d="M606 2234 c-195 -47 -349 -209 -391 -412 -58 -282 49 -568 252 -670
128 -65 127 -65 703 -71 l525 -6 37 -23 c87 -54 67 -173 -35 -211 -19 -8 -268
-11 -762 -11 l-734 0 -3 -237 c-2 -131 0 -246 5 -256 12 -27 1649 -21 1742 7
193 57 337 200 391 384 100 348 -53 663 -361 742 -69 18 -123 20 -578 24 -318
3 -515 9 -539 16 -74 22 -105 90 -74 165 29 68 -3 65 786 65 l710 0 0 255 0
255 -807 -1 c-661 -1 -819 -3 -867 -15z"/>
<path d="M4836 2005 c-4 -135 -4 -249 -1 -255 4 -7 251 -10 711 -10 761 0 741
1 778 -52 26 -36 21 -111 -9 -146 -42 -50 -66 -52 -800 -52 -533 0 -675 -3
-675 -12 -1 -7 -3 -268 -6 -579 l-5 -566 23 -7 c52 -14 1600 -6 1683 9 369 66
532 482 324 825 -26 42 -105 111 -139 122 -10 3 -4 10 19 22 107 56 180 214
181 391 0 213 -109 404 -282 491 -129 65 -109 64 -994 64 l-801 0 -7 -245z
m1449 -916 c97 -25 141 -141 78 -211 -41 -47 -56 -48 -533 -48 l-450 0 0 135
0 135 431 0 c278 0 445 -4 474 -11z"/>
<path d="M7102 1288 l3 -963 275 0 275 0 0 960 0 960 -278 3 -277 2 2 -962z"/>
<path d="M8286 2234 c-152 -37 -305 -156 -366 -285 -62 -131 -65 -166 -65
-669 0 -444 1 -457 23 -534 59 -205 169 -327 354 -394 l73 -27 595 -3 595 -3
60 -63 60 -63 260 -6 c255 -7 315 -3 323 21 2 6 -67 84 -152 171 -86 88 -156
163 -156 168 0 5 19 15 42 23 67 24 78 49 90 191 16 209 5 961 -15 1034 -64
224 -221 378 -443 435 -101 26 -1173 29 -1278 4z m1125 -546 c80 -47 84 -62
87 -365 l3 -263 -333 -2 c-400 -4 -383 6 -246 -136 l93 -97 -35 -3 c-19 -2
-123 -2 -230 0 -207 5 -235 10 -283 56 -60 57 -61 62 -65 364 -7 493 -23 479
573 475 l390 -2 46 -27z"/>
  </g>
</svg>
